<?xml version="1.0" encoding="UTF-8" standalone="no"?>
<!-- Created with Inkscape (http://www.inkscape.org/) -->

<svg
   width="128pt"
   height="128pt"
   viewBox="0 0 210 297"
   version="1.1"
   id="svg1"
   inkscape:version="1.3.1 (9b9bdc1480, 2023-11-25, custom)"
   sodipodi:docname="qcm.svg"
   xmlns:inkscape="http://www.inkscape.org/namespaces/inkscape"
   xmlns:sodipodi="http://sodipodi.sourceforge.net/DTD/sodipodi-0.dtd"
   xmlns="http://www.w3.org/2000/svg"
   xmlns:svg="http://www.w3.org/2000/svg">
  <sodipodi:namedview
     id="namedview1"
     pagecolor="#505050"
     bordercolor="#eeeeee"
     borderopacity="1"
     inkscape:showpageshadow="0"
     inkscape:pageopacity="0"
     inkscape:pagecheckerboard="0"
     inkscape:deskcolor="#505050"
     inkscape:document-units="mm"
     inkscape:zoom="4.2564803"
     inkscape:cx="75.766825"
     inkscape:cy="87.631088"
     inkscape:window-width="1920"
     inkscape:window-height="1016"
     inkscape:window-x="0"
     inkscape:window-y="0"
     inkscape:window-maximized="1"
     inkscape:current-layer="layer1" />
  <defs
     id="defs1">
    <clipPath
       clipPathUnits="userSpaceOnUse"
       id="clipPath5">
      <g
         inkscape:label="Clip"
         id="use5">
        <rect
           style="fill:#ffffff;stroke:#000000;stroke-width:8.02927;stroke-dasharray:none"
           id="rect5"
           width="127.40552"
           height="109.62922"
           x="-59.348633"
           y="45.533096"
           transform="matrix(0.89689503,-0.44224349,0.56005269,0.828457,4.4969272e-7,0)"
           inkscape:transform-center-x="12.043326"
           inkscape:transform-center-y="36.272958" />
      </g>
    </clipPath>
  </defs>
  <g
     inkscape:label="Layer 1"
     inkscape:groupmode="layer"
     id="layer1">
    <path
       style="fill:none;stroke:#ffffff;stroke-width:39.46358149;stroke-dasharray:none"
       id="path6-2"
       transform="rotate(30)"
       sodipodi:type="arc"
       sodipodi:cx="165.18266"
       sodipodi:cy="76.104774"
       sodipodi:rx="108.42929"
       sodipodi:ry="108.42929"
       sodipodi:start="3.6651914"
       sodipodi:end="2.1816616"
       sodipodi:arc-type="arc"
       d="m 71.280141,21.890132 a 108.42929,108.42929 0 0 1 110.397149,-52.952695 108.42929,108.42929 0 0 1 89.36446,83.698944 108.42929,108.42929 0 0 1 -45.619,113.624059 108.42929,108.42929 0 0 1 -122.43258,-1.33559"
       sodipodi:open="true" />
    <path
       style="color:#000000;display:inline;fill:#ffffff;stroke-width:3.28863179;stroke-dasharray:none;stroke:#ffffff;stroke-opacity:1"
       d="m 49.215815,211.46754 -35.85449,62.1018 29.903251,17.26465 35.85449,-62.1018 z m 0.60194,2.24647 27.054833,15.62012 -34.20996,59.25338 -27.054833,-15.62011 z"
       id="path5" />
    <path
       style="color:#000000;fill:#000000;stroke-width:0;stroke-dasharray:none"
       d="m 49.516092,212.59027 28.480389,16.44316 -35.03264,60.67831 -28.480389,-16.44316 z"
       id="path4" />
    <path
       style="fill:none;stroke:#000000;stroke-width:32.88631883;stroke-dasharray:none"
       id="path6"
       transform="rotate(30)"
       sodipodi:type="arc"
       sodipodi:cx="165.18266"
       sodipodi:cy="76.104774"
       sodipodi:rx="108.42929"
       sodipodi:ry="108.42929"
       sodipodi:start="3.6651914"
       sodipodi:end="2.1816616"
       sodipodi:arc-type="arc"
       d="m 71.280141,21.890132 a 108.42929,108.42929 0 0 1 110.397149,-52.952695 108.42929,108.42929 0 0 1 89.36446,83.698944 108.42929,108.42929 0 0 1 -45.619,113.624059 108.42929,108.42929 0 0 1 -122.43258,-1.33559"
       sodipodi:open="true" />
    <ellipse
       style="display:inline;fill:#000000;stroke:#ffffff;stroke-width:3.28863179;stroke-dasharray:none"
       id="path7"
       cx="165.18266"
       cy="76.104774"
       rx="20.093876"
       ry="20.986567"
       transform="rotate(30)" />
    <path
       style="display:inline;fill:#000000;fill-opacity:1;stroke:#ffffff;stroke-width:1.64432;stroke-dasharray:none;stroke-opacity:1"
       id="path8"
       sodipodi:type="arc"
       sodipodi:cx="264.32486"
       sodipodi:cy="43.944569"
       sodipodi:rx="1.4639425"
       sodipodi:ry="1.909232"
       sodipodi:start="3.6651914"
       sodipodi:end="2.1816616"
       sodipodi:open="true"
       sodipodi:arc-type="arc"
       d="m 263.05705,42.989953 a 1.4639425,1.909232 0 0 1 1.49051,-0.932396 1.4639425,1.909232 0 0 1 1.20654,1.473778 1.4639425,1.909232 0 0 1 -0.61592,2.000702 1.4639425,1.909232 0 0 1 -1.653,-0.02352" />
  </g>
</svg>
